<?xml version="1.0" standalone="no"?>
<!DOCTYPE svg PUBLIC "-//W3C//DTD SVG 20010904//EN"
 "http://www.w3.org/TR/2001/REC-SVG-20010904/DTD/svg10.dtd">
<svg version="1.0" xmlns="http://www.w3.org/2000/svg"
 width="369.000000pt" height="77.000000pt" viewBox="0 0 369.000000 77.000000"
 preserveAspectRatio="xMidYMid meet">

<g transform="translate(0.000000,77.000000) scale(0.100000,-0.100000)"
fill="#000000" stroke="none">
<path d="M293 740 c-82 -17 -137 -61 -172 -140 -29 -66 -91 -342 -91 -404 0
-67 28 -112 90 -143 41 -22 57 -23 241 -23 l197 0 6 31 c12 62 18 59 -133 59
-195 0 -202 8 -166 167 l18 83 152 0 152 0 10 45 10 45 -150 0 -149 0 6 32
c15 77 28 106 56 133 l31 30 147 3 c81 2 150 6 153 10 4 4 10 24 13 45 l7 37
-193 -1 c-106 -1 -212 -5 -235 -9z"/>
<path d="M970 740 c-140 -24 -220 -100 -220 -207 0 -73 29 -107 156 -182 168
-100 189 -127 144 -184 -30 -38 -77 -47 -242 -47 -81 0 -149 -3 -152 -8 -2 -4
-7 -24 -11 -45 l-7 -37 180 0 c100 0 205 5 234 11 146 31 238 119 238 228 0
91 -44 142 -186 218 -95 50 -124 76 -124 108 0 47 38 60 196 63 l142 4 7 26
c3 15 8 35 11 45 5 16 -7 17 -158 16 -90 -1 -183 -5 -208 -9z"/>
<path d="M1411 713 c-6 -21 -11 -41 -11 -45 0 -5 47 -8 105 -8 89 0 105 -2
105 -16 0 -14 -122 -550 -136 -596 -5 -16 5 -18 109 -18 l113 0 68 293 c38
160 72 302 77 315 8 21 14 22 103 22 l95 0 10 38 c6 20 11 40 11 45 0 4 -144
7 -320 7 l-319 0 -10 -37z"/>
<path d="M3254 739 c-79 -18 -136 -87 -158 -191 -6 -26 -9 -28 -62 -28 l-55 0
3 -32 c3 -31 6 -33 46 -36 23 -2 42 -7 42 -12 0 -11 -79 -379 -85 -397 -3 -10
14 -13 63 -13 l68 0 45 208 45 207 67 3 c62 3 67 5 67 25 0 34 -19 47 -67 47
-49 0 -53 10 -31 82 14 49 50 78 94 78 21 0 34 5 34 13 0 6 3 22 6 35 6 20 3
22 -37 21 -24 -1 -62 -5 -85 -10z"/>
<path d="M3377 377 c-62 -282 -63 -300 -15 -331 37 -24 99 -30 141 -12 49 20
52 53 6 58 -55 5 -57 21 -18 195 l34 158 68 3 68 3 -3 32 c-3 31 -5 32 -58 37
-60 5 -61 6 -45 83 l7 37 -63 0 -64 0 -58 -263z"/>
<path d="M2188 520 c-98 -17 -158 -72 -158 -147 0 -47 16 -67 108 -133 54 -39
72 -57 72 -75 0 -40 -35 -55 -126 -55 -88 0 -126 -17 -137 -61 -6 -21 -5 -21
126 -17 117 3 137 6 177 28 58 33 90 80 90 136 0 53 -21 79 -109 137 -79 52
-92 70 -68 94 13 13 40 19 104 24 74 5 89 9 104 28 35 43 26 51 -58 50 -43 -1
-99 -5 -125 -9z"/>
<path d="M2638 517 c-26 -8 -65 -25 -87 -40 -126 -84 -183 -294 -104 -387 41
-49 79 -64 163 -64 173 -1 300 118 317 297 7 82 -17 143 -72 177 -45 28 -148
36 -217 17z m145 -68 c36 -44 10 -224 -46 -307 -48 -73 -125 -88 -168 -33 -18
22 -20 36 -16 91 8 124 66 243 131 271 31 13 78 2 99 -22z"/>
</g>
</svg>
