<?xml version="1.0" standalone="no"?>
<!DOCTYPE svg PUBLIC "-//W3C//DTD SVG 20010904//EN"
 "http://www.w3.org/TR/2001/REC-SVG-20010904/DTD/svg10.dtd">
<svg version="1.0" xmlns="http://www.w3.org/2000/svg"
 width="258.000000pt" height="80.000000pt" viewBox="0 0 258.000000 80.000000"
 preserveAspectRatio="xMidYMid meet">

<g transform="translate(0.000000,80.000000) scale(0.100000,-0.100000)"
fill="#000000" stroke="none">
<path d="M1066 734 c-21 -20 -20 -27 3 -48 36 -33 83 18 49 52 -16 16 -33 15
-52 -4z"/>
<path d="M1416 734 c-9 -8 -16 -19 -16 -24 0 -5 7 -16 16 -24 8 -9 19 -16 24
-16 5 0 16 7 24 16 9 8 16 19 16 24 0 5 -7 16 -16 24 -8 9 -19 16 -24 16 -5 0
-16 -7 -24 -16z"/>
<path d="M117 700 c-116 -73 -146 -284 -47 -335 44 -23 167 -14 184 14 3 5 14
45 25 90 l18 81 -66 0 c-60 0 -67 -2 -67 -20 0 -16 7 -20 33 -20 18 0 33 -3
33 -7 0 -26 -24 -90 -38 -100 -26 -21 -71 -15 -99 13 -23 23 -25 31 -20 83 7
79 38 146 79 171 39 24 85 26 115 5 18 -13 22 -12 38 5 16 18 15 19 -14 34
-50 26 -120 21 -174 -14z"/>
<path d="M408 614 c-44 -23 -81 -96 -82 -161 0 -49 3 -58 27 -79 20 -17 40
-24 70 -24 54 1 110 29 97 49 -7 12 -13 13 -35 3 -41 -19 -83 -15 -95 9 -15
27 -9 65 10 61 33 -8 102 11 130 34 36 31 40 74 10 104 -24 24 -92 26 -132 4z
m86 -30 c21 -20 20 -30 -4 -54 -19 -19 -79 -28 -93 -14 -11 11 23 65 46 74 31
12 34 12 51 -6z"/>
<path d="M638 623 c-13 -3 -18 -14 -18 -37 0 -17 -9 -72 -20 -122 -24 -111
-25 -104 4 -104 22 0 26 7 40 69 9 39 16 77 16 86 0 38 88 93 104 66 3 -5 -5
-56 -18 -115 l-23 -106 26 0 c26 0 28 4 45 90 15 76 23 94 48 115 34 29 56 32
65 9 5 -13 -12 -109 -34 -192 -4 -19 -1 -22 21 -22 18 0 27 6 31 23 27 113 42
202 37 216 -13 37 -60 41 -110 11 -40 -24 -38 -24 -45 0 -4 15 -14 20 -40 20
-19 0 -45 -9 -60 -20 -14 -11 -28 -20 -31 -20 -3 0 -6 9 -6 20 0 20 -2 21 -32
13z"/>
<path d="M1045 618 c-2 -7 -13 -60 -25 -118 -12 -58 -24 -113 -26 -122 -4 -14
1 -18 23 -18 28 0 29 1 52 116 13 64 26 124 28 135 4 15 0 19 -21 19 -15 0
-28 -6 -31 -12z"/>
<path d="M1157 623 c-4 -3 -7 -12 -7 -20 0 -9 17 -13 60 -13 33 0 60 -4 60 -9
0 -5 -3 -11 -7 -13 -20 -8 -173 -179 -173 -193 0 -22 195 -22 204 0 4 12 -6
15 -59 15 -36 0 -65 3 -65 8 1 4 39 48 85 97 54 57 85 98 85 113 0 21 -3 22
-88 22 -49 0 -92 -3 -95 -7z"/>
<path d="M1395 618 c-5 -14 -55 -246 -55 -254 0 -3 12 -4 27 -2 25 3 28 8 49
108 38 176 37 160 8 160 -13 0 -27 -6 -29 -12z"/>
<path d="M1523 623 c-7 -2 -13 -15 -13 -28 0 -12 -16 -96 -35 -186 -19 -89
-33 -164 -31 -166 2 -2 15 1 29 6 20 8 26 19 32 60 l7 50 48 -6 c39 -4 55 -1
83 16 66 41 106 193 62 241 -23 26 -70 26 -112 0 -33 -20 -33 -20 -33 0 0 19
-12 24 -37 13z m138 -55 c16 -30 -6 -124 -37 -155 -24 -24 -77 -32 -89 -12 -4
6 -2 39 5 75 10 51 19 69 42 89 36 31 64 32 79 3z"/>
<path d="M1726 144 c-11 -27 -6 -70 9 -90 17 -23 19 -14 4 20 -8 18 -9 33 -1
55 11 31 0 45 -12 15z"/>
<path d="M1872 129 c8 -22 7 -37 -1 -55 -15 -34 -13 -43 4 -20 22 29 18 106
-6 106 -4 0 -3 -14 3 -31z"/>
<path d="M2089 158 c-5 -21 -3 -108 3 -108 4 0 8 25 8 55 0 30 -2 55 -5 55 -3
0 -5 -1 -6 -2z"/>
<path d="M2198 123 c-3 -36 -5 -38 -35 -37 -26 2 -33 -2 -33 -17 0 -15 7 -19
40 -19 l40 0 0 55 c0 63 -7 73 -12 18z m-15 -60 c-7 -2 -19 -2 -25 0 -7 3 -2
5 12 5 14 0 19 -2 13 -5z"/>
<path d="M1775 141 c18 -7 18 -8 1 -18 -14 -7 -7 -10 29 -10 36 0 43 3 29 10
-17 10 -17 11 1 18 14 5 3 8 -30 8 -33 0 -44 -3 -30 -8z"/>
<path d="M1962 100 c0 -45 2 -50 8 -25 l8 30 1 -27 c2 -50 20 -29 19 22 0 28
-4 50 -9 50 -5 0 -9 -8 -10 -17 0 -15 -2 -15 -9 2 -6 14 -8 4 -8 -35z"/>
<path d="M2130 139 c11 -8 12 -12 3 -16 -23 -9 -14 -20 17 -20 31 0 40 11 18
20 -10 4 -9 8 2 16 12 8 7 11 -20 11 -27 0 -32 -3 -20 -11z"/>
<path d="M2260 135 c0 -9 -7 -18 -15 -21 -8 -4 -15 -10 -15 -15 0 -6 9 -5 20
1 14 8 26 8 41 0 11 -7 23 -9 26 -7 2 3 -5 10 -16 17 -12 6 -21 17 -21 25 0 8
-4 15 -10 15 -5 0 -10 -7 -10 -15z"/>
<path d="M2345 129 c5 -14 2 -25 -6 -30 -9 -6 2 -9 31 -9 43 0 45 1 46 30 1
28 -1 30 -38 30 -36 0 -39 -2 -33 -21z m45 -14 c0 -8 -4 -15 -9 -15 -5 0 -11
7 -15 15 -3 9 0 15 9 15 8 0 15 -7 15 -15z"/>
<path d="M2448 145 c-3 -3 -3 -17 0 -30 4 -22 9 -25 46 -24 l41 2 -40 7 -40 7
35 3 35 3 -35 7 -35 7 33 2 c17 0 32 6 32 11 0 10 -62 14 -72 5z"/>
<path d="M1913 133 c21 -6 21 -12 1 -41 -8 -12 -11 -22 -6 -22 13 0 28 21 35
48 4 19 1 22 -21 21 -17 -1 -21 -3 -9 -6z"/>
<path d="M2010 105 c0 -32 2 -35 30 -35 28 0 30 3 30 35 0 32 -2 35 -30 35
-28 0 -30 -3 -30 -35z m40 0 c0 -14 -4 -25 -10 -25 -5 0 -10 11 -10 25 0 14 5
25 10 25 6 0 10 -11 10 -25z"/>
<path d="M1750 88 c0 -4 11 -8 24 -8 15 0 26 -7 29 -17 4 -17 5 -17 6 0 1 11
9 17 26 17 14 0 25 5 25 10 0 6 -23 10 -55 9 -30 -1 -55 -6 -55 -11z"/>
<path d="M2260 81 c0 -5 -10 -12 -22 -14 -13 -2 51 -5 141 -6 90 0 162 2 159
5 -3 3 -63 5 -132 5 -77 -1 -126 3 -126 9 0 6 -4 10 -10 10 -5 0 -10 -4 -10
-9z"/>
</g>
</svg>
